<svg width="18" height="18" viewBox="0 0 18 18" fill="none" xmlns="http://www.w3.org/2000/svg">
<rect width="18" height="18" fill="white"/>
<path d="M4.5 12.375H2.25V15.75H4.5V12.375ZM10.125 7.875H7.875V15.75H10.125V7.875ZM15.75 2.25V15.75H13.5V2.25H15.75ZM13.5 1.125C13.2016 1.125 12.9155 1.24353 12.7045 1.4545C12.4935 1.66548 12.375 1.95163 12.375 2.25V15.75C12.375 16.0484 12.4935 16.3345 12.7045 16.5455C12.9155 16.7565 13.2016 16.875 13.5 16.875H15.75C16.0484 16.875 16.3345 16.7565 16.5455 16.5455C16.7565 16.3345 16.875 16.0484 16.875 15.75V2.25C16.875 1.95163 16.7565 1.66548 16.5455 1.4545C16.3345 1.24353 16.0484 1.125 15.75 1.125H13.5ZM6.75 7.875C6.75 7.57663 6.86853 7.29048 7.0795 7.0795C7.29048 6.86853 7.57663 6.75 7.875 6.75H10.125C10.4234 6.75 10.7095 6.86853 10.9205 7.0795C11.1315 7.29048 11.25 7.57663 11.25 7.875V15.75C11.25 16.0484 11.1315 16.3345 10.9205 16.5455C10.7095 16.7565 10.4234 16.875 10.125 16.875H7.875C7.57663 16.875 7.29048 16.7565 7.0795 16.5455C6.86853 16.3345 6.75 16.0484 6.75 15.75V7.875ZM1.125 12.375C1.125 12.0766 1.24353 11.7905 1.4545 11.5795C1.66548 11.3685 1.95163 11.25 2.25 11.25H4.5C4.79837 11.25 5.08452 11.3685 5.2955 11.5795C5.50647 11.7905 5.625 12.0766 5.625 12.375V15.75C5.625 16.0484 5.50647 16.3345 5.2955 16.5455C5.08452 16.7565 4.79837 16.875 4.5 16.875H2.25C1.95163 16.875 1.66548 16.7565 1.4545 16.5455C1.24353 16.3345 1.125 16.0484 1.125 15.75V12.375Z" fill="#252525"/>
</svg>
