<svg width="11" height="6" viewBox="0 0 11 6" fill="none" xmlns="http://www.w3.org/2000/svg">
<path fill-rule="evenodd" clip-rule="evenodd" d="M6.40307 5.53401C6.26242 5.67462 6.07169 5.7536 5.87282 5.7536C5.67394 5.7536 5.48321 5.67462 5.34257 5.53401L1.09982 1.29126C1.02818 1.22208 0.971046 1.13932 0.93174 1.04782C0.892433 0.956313 0.871743 0.857898 0.870878 0.758314C0.870013 0.658729 0.888989 0.55997 0.9267 0.467798C0.96441 0.375625 1.0201 0.291886 1.09052 0.221466C1.16094 0.151047 1.24468 0.0953571 1.33685 0.0576465C1.42902 0.0199358 1.52778 0.000959678 1.62737 0.00182504C1.72695 0.0026904 1.82537 0.0233801 1.91687 0.0626869C2.00837 0.101994 2.09113 0.15913 2.16032 0.230763L5.87282 3.94326L9.58532 0.230763C9.72677 0.0941441 9.91622 0.0185484 10.1129 0.0202572C10.3095 0.021966 10.4976 0.100843 10.6367 0.239899C10.7757 0.378955 10.8546 0.567064 10.8563 0.763712C10.858 0.960359 10.7824 1.14981 10.6458 1.29126L6.40307 5.53401Z" fill="#4A4A4A"/>
</svg>
