<svg width="20" height="21" viewBox="0 0 20 21" fill="none" xmlns="http://www.w3.org/2000/svg">
<path d="M16.4916 18.4288L12.0583 13.9871C12.0383 13.9684 12.0224 13.9458 12.0116 13.9207C12.0007 13.8956 11.9951 13.8686 11.9951 13.8413C11.9951 13.8139 12.0007 13.7869 12.0116 13.7618C12.0224 13.7367 12.0383 13.7141 12.0583 13.6954L12.9416 12.8121C12.9603 12.7922 12.9829 12.7763 13.008 12.7654C13.033 12.7546 13.0601 12.749 13.0874 12.749C13.1147 12.749 13.1418 12.7546 13.1669 12.7654C13.192 12.7763 13.2145 12.7922 13.2333 12.8121L17.6749 17.2454L16.4916 18.4288Z" fill="#4A4A4A"/>
<path d="M6.76662 8.69543L2.32495 4.2621L3.50828 3.07877L7.94162 7.52043C7.96155 7.53914 7.97743 7.56173 7.98829 7.58681C7.99915 7.61189 8.00475 7.63893 8.00475 7.66627C8.00475 7.6936 7.99915 7.72064 7.98829 7.74572C7.97743 7.7708 7.96155 7.7934 7.94162 7.8121L7.05828 8.69543C7.03958 8.71536 7.01699 8.73125 6.99191 8.7421C6.96683 8.75296 6.93978 8.75857 6.91245 8.75857C6.88512 8.75857 6.85808 8.75296 6.833 8.7421C6.80791 8.73125 6.78532 8.71536 6.76662 8.69543Z" fill="#4A4A4A"/>
<path d="M3.50828 18.4288L2.32495 17.2454L6.76662 12.8121C6.78532 12.7922 6.80791 12.7763 6.833 12.7654C6.85808 12.7546 6.88512 12.749 6.91245 12.749C6.93978 12.749 6.96683 12.7546 6.99191 12.7654C7.01699 12.7763 7.03958 12.7922 7.05828 12.8121L7.94162 13.6954C7.96155 13.7141 7.97743 13.7367 7.98829 13.7618C7.99915 13.7869 8.00475 13.8139 8.00475 13.8413C8.00475 13.8686 7.99915 13.8956 7.98829 13.9207C7.97743 13.9458 7.96155 13.9684 7.94162 13.9871L3.50828 18.4288Z" fill="#4A4A4A"/>
<path d="M12.9416 8.69543L12.0583 7.8121C12.0383 7.7934 12.0224 7.7708 12.0116 7.74572C12.0007 7.72064 11.9951 7.6936 11.9951 7.66627C11.9951 7.63893 12.0007 7.61189 12.0116 7.58681C12.0224 7.56173 12.0383 7.53914 12.0583 7.52043L16.4916 3.07877L17.6749 4.2621L13.2333 8.69543C13.2145 8.71536 13.192 8.73125 13.1669 8.7421C13.1418 8.75296 13.1147 8.75857 13.0874 8.75857C13.0601 8.75857 13.033 8.75296 13.008 8.7421C12.9829 8.73125 12.9603 8.71536 12.9416 8.69543Z" fill="#4A4A4A"/>
<path d="M16.4916 18.4288L12.0583 13.9871C12.0383 13.9684 12.0224 13.9458 12.0116 13.9207C12.0007 13.8956 11.9951 13.8686 11.9951 13.8413C11.9951 13.8139 12.0007 13.7869 12.0116 13.7618C12.0224 13.7367 12.0383 13.7141 12.0583 13.6954L12.9416 12.8121C12.9603 12.7922 12.9829 12.7763 13.008 12.7654C13.033 12.7546 13.0601 12.749 13.0874 12.749C13.1147 12.749 13.1418 12.7546 13.1669 12.7654C13.192 12.7763 13.2145 12.7922 13.2333 12.8121L17.6749 17.2454L16.4916 18.4288Z" fill="#4A4A4A"/>
<path d="M16.0749 18.0121L12.0583 13.9871C12.0383 13.9684 12.0224 13.9458 12.0116 13.9207C12.0007 13.8956 11.9951 13.8686 11.9951 13.8413C11.9951 13.8139 12.0007 13.7869 12.0116 13.7618C12.0224 13.7367 12.0383 13.7141 12.0583 13.6954L12.9416 12.8121C12.9603 12.7922 12.9829 12.7763 13.008 12.7654C13.033 12.7546 13.0601 12.749 13.0874 12.749C13.1147 12.749 13.1418 12.7546 13.1669 12.7654C13.192 12.7763 13.2145 12.7922 13.2333 12.8121L17.2582 16.8288L16.0749 18.0121Z" fill="#4A4A4A"/>
<path d="M6.7667 8.69543L2.7417 4.67877L3.92503 3.49543L7.9417 7.52043C7.96163 7.53914 7.97751 7.56173 7.98837 7.58681C7.99923 7.61189 8.00483 7.63893 8.00483 7.66627C8.00483 7.6936 7.99923 7.72064 7.98837 7.74572C7.97751 7.7708 7.96163 7.7934 7.9417 7.8121L7.05837 8.69543C7.03966 8.71536 7.01707 8.73125 6.99199 8.7421C6.96691 8.75296 6.93987 8.75857 6.91253 8.75857C6.8852 8.75857 6.85816 8.75296 6.83308 8.7421C6.80799 8.73125 6.7854 8.71536 6.7667 8.69543Z" fill="#4A4A4A"/>
<path d="M3.50828 18.4288L2.32495 17.2454L6.76662 12.8121C6.78532 12.7922 6.80791 12.7763 6.833 12.7654C6.85808 12.7546 6.88512 12.749 6.91245 12.749C6.93978 12.749 6.96683 12.7546 6.99191 12.7654C7.01699 12.7763 7.03958 12.7922 7.05828 12.8121L7.94162 13.6954C7.96155 13.7141 7.97743 13.7367 7.98829 13.7618C7.99915 13.7869 8.00475 13.8139 8.00475 13.8413C8.00475 13.8686 7.99915 13.8956 7.98829 13.9207C7.97743 13.9458 7.96155 13.9684 7.94162 13.9871L3.50828 18.4288Z" fill="#4A4A4A"/>
<path d="M3.92503 18.0121L2.7417 16.8288L6.7667 12.8121C6.7854 12.7922 6.80799 12.7763 6.83308 12.7654C6.85816 12.7546 6.8852 12.749 6.91253 12.749C6.93987 12.749 6.96691 12.7546 6.99199 12.7654C7.01707 12.7763 7.03966 12.7922 7.05837 12.8121L7.9417 13.6954C7.96163 13.7141 7.97751 13.7367 7.98837 13.7618C7.99923 13.7869 8.00483 13.8139 8.00483 13.8413C8.00483 13.8686 7.99923 13.8956 7.98837 13.9207C7.97751 13.9458 7.96163 13.9684 7.9417 13.9871L3.92503 18.0121Z" fill="#4A4A4A"/>
<path d="M12.9416 8.69543L12.0583 7.8121C12.0383 7.7934 12.0224 7.7708 12.0116 7.74572C12.0007 7.72064 11.9951 7.6936 11.9951 7.66627C11.9951 7.63893 12.0007 7.61189 12.0116 7.58681C12.0224 7.56173 12.0383 7.53914 12.0583 7.52043L16.4916 3.07877L17.6749 4.2621L13.2333 8.69543C13.2145 8.71536 13.192 8.73125 13.1669 8.7421C13.1418 8.75296 13.1147 8.75857 13.0874 8.75857C13.0601 8.75857 13.033 8.75296 13.008 8.7421C12.9829 8.73125 12.9603 8.71536 12.9416 8.69543Z" fill="#4A4A4A"/>
<path d="M12.9416 8.69543L12.0583 7.8121C12.0383 7.7934 12.0224 7.7708 12.0116 7.74572C12.0007 7.72064 11.9951 7.6936 11.9951 7.66627C11.9951 7.63893 12.0007 7.61189 12.0116 7.58681C12.0224 7.56173 12.0383 7.53914 12.0583 7.52043L16.0749 3.49543L17.2582 4.67877L13.2333 8.69543C13.2145 8.71536 13.192 8.73125 13.1669 8.7421C13.1418 8.75296 13.1147 8.75857 13.0874 8.75857C13.0601 8.75857 13.033 8.75296 13.008 8.7421C12.9829 8.73125 12.9603 8.71536 12.9416 8.69543Z" fill="#4A4A4A"/>
<path d="M3.54171 7.42043H2.29171C2.23645 7.42043 2.18346 7.39848 2.14439 7.35941C2.10532 7.32034 2.08337 7.26735 2.08337 7.2121V3.04543C2.08337 2.99018 2.10532 2.93719 2.14439 2.89812C2.18346 2.85905 2.23645 2.8371 2.29171 2.8371H6.45837C6.51363 2.8371 6.56662 2.85905 6.60569 2.89812C6.64476 2.93719 6.66671 2.99018 6.66671 3.04543V4.29543C6.66671 4.35069 6.64476 4.40368 6.60569 4.44275C6.56662 4.48182 6.51363 4.50377 6.45837 4.50377H3.75004V7.2121C3.75004 7.26735 3.72809 7.32034 3.68902 7.35941C3.64995 7.39848 3.59696 7.42043 3.54171 7.42043Z" fill="#4A4A4A"/>
<path d="M17.7084 18.6704H13.5417C13.4865 18.6704 13.4335 18.6485 13.3944 18.6094C13.3553 18.5703 13.3334 18.5174 13.3334 18.4621V17.2121C13.3334 17.1568 13.3553 17.1039 13.3944 17.0648C13.4335 17.0257 13.4865 17.0038 13.5417 17.0038H16.25V14.2954C16.25 14.2402 16.272 14.1872 16.3111 14.1481C16.3501 14.109 16.4031 14.0871 16.4584 14.0871H17.7084C17.7636 14.0871 17.8166 14.109 17.8557 14.1481C17.8948 14.1872 17.9167 14.2402 17.9167 14.2954V18.4621C17.9167 18.5174 17.8948 18.5703 17.8557 18.6094C17.8166 18.6485 17.7636 18.6704 17.7084 18.6704Z" fill="#4A4A4A"/>
<path d="M17.7084 7.42043H16.4584C16.4031 7.42043 16.3501 7.39848 16.3111 7.35941C16.272 7.32034 16.25 7.26735 16.25 7.2121V4.50377H13.5417C13.4865 4.50377 13.4335 4.48182 13.3944 4.44275C13.3553 4.40368 13.3334 4.35069 13.3334 4.29543V3.04543C13.3334 2.99018 13.3553 2.93719 13.3944 2.89812C13.4335 2.85905 13.4865 2.8371 13.5417 2.8371H17.7084C17.7636 2.8371 17.8166 2.85905 17.8557 2.89812C17.8948 2.93719 17.9167 2.99018 17.9167 3.04543V7.2121C17.9167 7.26735 17.8948 7.32034 17.8557 7.35941C17.8166 7.39848 17.7636 7.42043 17.7084 7.42043Z" fill="#4A4A4A"/>
<path d="M6.45837 18.6704H2.29171C2.23645 18.6704 2.18346 18.6485 2.14439 18.6094C2.10532 18.5703 2.08337 18.5174 2.08337 18.4621V14.2954C2.08337 14.2402 2.10532 14.1872 2.14439 14.1481C2.18346 14.109 2.23645 14.0871 2.29171 14.0871H3.54171C3.59696 14.0871 3.64995 14.109 3.68902 14.1481C3.72809 14.1872 3.75004 14.2402 3.75004 14.2954V17.0038H6.45837C6.51363 17.0038 6.56662 17.0257 6.60569 17.0648C6.64476 17.1039 6.66671 17.1568 6.66671 17.2121V18.4621C6.66671 18.5174 6.64476 18.5703 6.60569 18.6094C6.56662 18.6485 6.51363 18.6704 6.45837 18.6704Z" fill="#4A4A4A"/>
</svg>
