<svg width="18" height="18" viewBox="0 0 18 18" fill="none" xmlns="http://www.w3.org/2000/svg">
<rect width="18" height="18" fill="white"/>
<path d="M2.32385 12.5508C2.21527 12.5508 2.109 12.5195 2.01785 12.4604C1.92671 12.4014 1.8546 12.3173 1.81022 12.2182C1.27319 11.0188 1.04484 9.70415 1.14598 8.39394C1.24711 7.08374 1.67451 5.81967 2.38923 4.71692C3.10395 3.61418 4.08326 2.70782 5.23793 2.08044C6.3926 1.45306 7.68592 1.1246 9.00002 1.125C9.14921 1.125 9.29228 1.18426 9.39777 1.28975C9.50326 1.39524 9.56252 1.53832 9.56252 1.6875V9C9.56254 9.10862 9.53112 9.21492 9.47204 9.30607C9.41296 9.39721 9.32875 9.4693 9.22959 9.51363L2.55342 12.5002C2.48134 12.5331 2.40309 12.5503 2.32385 12.5508Z" fill="#252525"/>
<path d="M11.0246 2.39697C10.9838 2.3887 10.9417 2.38958 10.9013 2.39955C10.8609 2.40953 10.8232 2.42834 10.791 2.45464C10.7587 2.48094 10.7327 2.51407 10.7148 2.55163C10.6969 2.5892 10.6876 2.63028 10.6875 2.67189V9.00002C10.6872 9.3257 10.5928 9.64437 10.4157 9.91768C10.2386 10.191 9.98622 10.4073 9.68905 10.5406L3.62565 13.2539C3.58806 13.2707 3.55462 13.2955 3.52768 13.3266C3.50074 13.3578 3.48095 13.3944 3.46972 13.434C3.45849 13.4736 3.45608 13.5152 3.46268 13.5558C3.46927 13.5964 3.4847 13.6351 3.50787 13.6691C3.97191 14.3516 4.5479 14.9508 5.21155 15.4413C6.46891 16.3767 7.99538 16.8797 9.56248 16.875C13.5946 16.875 16.875 13.5946 16.875 9.56252C16.875 6.03107 14.3585 3.07619 11.0246 2.39697Z" fill="#252525"/>
</svg>
