<svg width="33" height="40" viewBox="0 0 33 40" fill="none" xmlns="http://www.w3.org/2000/svg">
<g clip-path="url(#clip0_2_720)">
<path d="M0 6.93219L11.7131 19.9175L11.6894 19.9433H0V6.93219Z" fill="#BE263B"/>
<path d="M6.24216 0.689697L23.6054 19.9388C28.7562 19.7812 32.8837 15.5335 32.8837 10.3165C32.8837 4.99977 28.5968 0.689697 23.3086 0.689697H6.24216Z" fill="#BE263B"/>
<path d="M11.6894 19.9433H0V32.6789L11.6894 19.9433Z" fill="#BE263B"/>
<path d="M11.6894 19.9433H0V32.6789L11.6894 19.9433Z" fill="black" fill-opacity="0.2"/>
<path d="M5.92976 39.1969H23.2538C28.542 39.1969 32.829 34.8868 32.829 29.5701C32.829 24.356 28.706 20.1101 23.559 19.9481L23.578 19.9691L5.92976 39.1969Z" fill="#BE263B"/>
<path d="M5.92976 39.1969H23.2538C28.542 39.1969 32.829 34.8868 32.829 29.5701C32.829 24.356 28.706 20.1101 23.559 19.9481L23.578 19.9691L5.92976 39.1969Z" fill="black" fill-opacity="0.2"/>
</g>
<defs>
<clipPath id="clip0_2_720">
<rect width="33" height="40" fill="white"/>
</clipPath>
</defs>
</svg>
