<svg width="24" height="24" viewBox="0 0 24 24" fill="none" xmlns="http://www.w3.org/2000/svg">
<path d="M6.4 9.8C7.72548 9.8 8.8 8.72548 8.8 7.4C8.8 6.07452 7.72548 5 6.4 5C5.07452 5 4 6.07452 4 7.4C4 8.72548 5.07452 9.8 6.4 9.8Z" stroke="black" stroke-linecap="round" stroke-linejoin="round"/>
<path d="M6.39999 9.79999V14.6" stroke="black" stroke-linecap="round" stroke-linejoin="round"/>
<path d="M6.4 19.4C7.72548 19.4 8.8 18.3255 8.8 17C8.8 15.6745 7.72548 14.6 6.4 14.6C5.07452 14.6 4 15.6745 4 17C4 18.3255 5.07452 19.4 6.4 19.4Z" stroke="black" stroke-linecap="round" stroke-linejoin="round"/>
<path d="M12 5V19.4" stroke="black" stroke-linecap="round" stroke-linejoin="round"/>
<path d="M17.6 9.8C18.9255 9.8 20 8.72548 20 7.4C20 6.07452 18.9255 5 17.6 5C16.2745 5 15.2 6.07452 15.2 7.4C15.2 8.72548 16.2745 9.8 17.6 9.8Z" stroke="black" stroke-linecap="round" stroke-linejoin="round"/>
<path d="M15.2 15.16C15.9542 14.4854 16.5578 13.6594 16.9713 12.7358C17.3849 11.8123 17.5991 10.8119 17.6 9.79999" stroke="black" stroke-linecap="round" stroke-linejoin="round"/>
</svg>
