<svg width="24" height="24" viewBox="0 0 24 24" fill="none" xmlns="http://www.w3.org/2000/svg">
<path d="M19 12.75H8C7.80109 12.75 7.61033 12.671 7.46967 12.5303C7.32902 12.3897 7.25 12.1989 7.25 12C7.25 11.8011 7.32902 11.6103 7.46967 11.4697C7.61033 11.329 7.80109 11.25 8 11.25H19C19.1989 11.25 19.3897 11.329 19.5303 11.4697C19.671 11.6103 19.75 11.8011 19.75 12C19.75 12.1989 19.671 12.3897 19.5303 12.5303C19.3897 12.671 19.1989 12.75 19 12.75ZM19 8.24999H8C7.80109 8.24999 7.61033 8.17097 7.46967 8.03032C7.32902 7.88967 7.25 7.6989 7.25 7.49999C7.25 7.30108 7.32902 7.11031 7.46967 6.96966C7.61033 6.82901 7.80109 6.74999 8 6.74999H19C19.1989 6.74999 19.3897 6.82901 19.5303 6.96966C19.671 7.11031 19.75 7.30108 19.75 7.49999C19.75 7.6989 19.671 7.88967 19.5303 8.03032C19.3897 8.17097 19.1989 8.24999 19 8.24999ZM19 17.25H8C7.80109 17.25 7.61033 17.171 7.46967 17.0303C7.32902 16.8897 7.25 16.6989 7.25 16.5C7.25 16.3011 7.32902 16.1103 7.46967 15.9697C7.61033 15.829 7.80109 15.75 8 15.75H19C19.1989 15.75 19.3897 15.829 19.5303 15.9697C19.671 16.1103 19.75 16.3011 19.75 16.5C19.75 16.6989 19.671 16.8897 19.5303 17.0303C19.3897 17.171 19.1989 17.25 19 17.25ZM5 8.49999C4.86999 8.50158 4.74092 8.4778 4.62 8.42999C4.50051 8.37201 4.38948 8.29799 4.29 8.20999C4.19732 8.11655 4.124 8.00573 4.07423 7.88389C4.02447 7.76206 3.99924 7.63159 4 7.49999C4.00369 7.23522 4.10727 6.98162 4.29 6.78999C4.38387 6.69739 4.49636 6.6258 4.62 6.57999C4.86347 6.47997 5.13654 6.47997 5.38 6.57999C5.50276 6.62758 5.6149 6.69895 5.71 6.78999C5.89274 6.98162 5.99632 7.23522 6 7.49999C6.00076 7.63159 5.97554 7.76206 5.92578 7.88389C5.87601 8.00573 5.80269 8.11655 5.71 8.20999C5.61052 8.29799 5.4995 8.37201 5.38 8.42999C5.25909 8.4778 5.13002 8.50158 5 8.49999ZM5 13C4.86933 12.9984 4.74023 12.9712 4.62 12.92C4.49882 12.8693 4.3872 12.7983 4.29 12.71C4.19732 12.6165 4.124 12.5057 4.07423 12.3839C4.02447 12.2621 3.99924 12.1316 4 12C4.00369 11.7352 4.10727 11.4816 4.29 11.29C4.3872 11.2017 4.49882 11.1306 4.62 11.08C4.80103 10.9961 5.00302 10.9682 5.2 11L5.38 11.06L5.56 11.15C5.61239 11.1869 5.66248 11.227 5.71 11.27C5.89748 11.4666 6.00142 11.7283 6 12C6 12.2652 5.89465 12.5196 5.70711 12.7071C5.51957 12.8946 5.26522 13 5 13ZM5 17.5C4.86999 17.5016 4.74092 17.4778 4.62 17.43C4.50051 17.372 4.38948 17.298 4.29 17.21C4.20167 17.1128 4.13065 17.0012 4.08 16.88C4.0271 16.7603 3.99977 16.6309 3.99977 16.5C3.99977 16.3691 4.0271 16.2397 4.08 16.12C4.13065 15.9988 4.20167 15.8872 4.29 15.79C4.43063 15.6512 4.6092 15.5572 4.80319 15.5199C4.99718 15.4825 5.19789 15.5034 5.38 15.58C5.50276 15.6276 5.6149 15.6989 5.71 15.79C5.79833 15.8872 5.86936 15.9988 5.92 16.12C5.97291 16.2397 6.00024 16.3691 6.00024 16.5C6.00024 16.6309 5.97291 16.7603 5.92 16.88C5.86936 17.0012 5.79833 17.1128 5.71 17.21C5.61656 17.3027 5.50575 17.376 5.38391 17.4258C5.26207 17.4755 5.13161 17.5007 5 17.5Z" fill="black"/>
</svg>
